<svg xmlns="http://www.w3.org/2000/svg" viewBox="0 0 60 60"><g fill-rule="evenodd" stroke="#333"><path d="m9.109-1.105l4.584 4.803 7.423-5.02 5.894 2.62 1.965 8.604 6.331-.058 1.746-8.829 5.895-2.337 7.422 4.803 3.493-4.803-8.424-7.949c-21.59 19.802-38.859-11.876-20.314-24.645l-3.572-2.335-6.767-4.303-4.675 3.839 4.238 7.231-2.401 5.895-8.271 1.373-.026 6.267 8.514 2.183 2.347 5.731-5.403 6.931z" transform="matrix(1.0994 0 0 1.0994-1.362 47.614)" fill="#333" stroke-linejoin="round" stroke-linecap="round" stroke-width=".375"/><path d="m58.842 36.967a27.352 27.352 0 1 0 -54.703 0 27.352 27.352 0 1 0 54.703 0h-27.351z" transform="matrix(.73755 0 0 .73755 10.763-.674)" fill="#b3b3b3" stroke-width="4.237"/></g><g stroke-linejoin="round" stroke-linecap="round"><g fill="none" stroke="#4c4c4c" stroke-width="3.75"><path d="m33.858 26.38v-14.446"/><path d="m34.508 26.661l9.971 5.757"/></g><path d="m31.491 32.288a2.3393 2.3393 0 1 0 -4.679 0 2.3393 2.3393 0 1 0 4.678 0h-2.339z" transform="matrix(.78124 0 0 .78124 11.215 1.366)" fill="#333" fill-rule="evenodd" stroke="#333" stroke-width="3.2"/></g><metadata><rdf:RDF><cc:Work><cc:license rdf:resource="http://creativecommons.org/licenses/publicdomain/"/><dc:publisher><cc:Agent rdf:about="http://openclipart.org/"><dc:title>Openclipart</dc:title></cc:Agent></dc:publisher><dc:title>ftkarm</dc:title><dc:date>2011-01-31T02:11:50</dc:date><dc:description>Originally uploaded by Danny Allen for OCAL 0.18 this icon is part of the flat theme</dc:description><dc:source>https://openclipart.org/detail/115447/ftkarm-by-anonymous</dc:source></cc:Work><cc:License rdf:about="http://creativecommons.org/licenses/publicdomain/"><cc:permits rdf:resource="http://creativecommons.org/ns#Reproduction"/><cc:permits rdf:resource="http://creativecommons.org/ns#Distribution"/><cc:permits rdf:resource="http://creativecommons.org/ns#DerivativeWorks"/></cc:License></rdf:RDF></metadata></svg>
